<svg aria-hidden="true" style="position: absolute; width: 0; height: 0; overflow: hidden;" version="1.1" xmlns="http://www.w3.org/2000/svg" xmlns:xlink="http://www.w3.org/1999/xlink">
<defs>
<symbol id="icon-logo" viewBox="0 0 56 32">
<path d="M54.636 14.030h-1.478l-0.694 4.863v-6.901c0-0.783-0.634-1.417-1.416-1.417h-1.309l-0.916 6.418v-6.551c0-1.588-1.287-2.876-2.876-2.876s-2.877 1.287-2.877 2.876v7.416h-30.086v-7.416c0-1.588-1.288-2.876-2.876-2.876-1.589 0-2.877 1.287-2.877 2.876v6.551l-0.915-6.418h-1.309c-0 0-0 0-0 0-0.782 0-1.417 0.634-1.417 1.417 0 0 0 0 0 0v-0 6.901l-0.694-4.863h-1.478c-0 0-0 0-0 0-0.783 0-1.417 0.634-1.417 1.417v0 8.622c0 0 0 0 0 0 0 0.782 0.634 1.417 1.417 1.417 0 0 0 0 0 0h2.172v2.039c0 0.782 0.634 1.416 1.417 1.416h1.883l0.403-2.826v3.552c0.274 1.303 1.43 2.282 2.815 2.282 1.588 0 2.876-1.288 2.876-2.876v-7.416h30.086v7.416c0 1.589 1.288 2.876 2.877 2.876 1.384 0 2.541-0.979 2.814-2.282v-3.552l0.404 2.826h1.883c0.782 0 1.416-0.634 1.416-1.416v0-2.038h2.173c0.782 0 1.416-0.634 1.416-1.417v-8.622c0-0.782-0.634-1.417-1.416-1.417z"></path>
<path d="M36.415 31.136l-8.378-22.408-8.378 22.408h-3.548l11.925-31.136 11.923 31.136z"></path>
</symbol>
<symbol id="icon-running" viewBox="0 0 32 32">
      <path
        d="M29.647 9.451a1.185 1.185 0 0 0-1.667-.149l-3.282 2.757-1.509-3.739a1.163 1.163 0 0 0-.229-.362 3.215 3.215 0 0 0-1.582-1.617 3.24 3.24 0 0 0-.982-.262c-.073-.038-.139-.088-.222-.114l-5.775-1.61a1.19 1.19 0 0 0-.917.125 1.155 1.155 0 0 0-.719.672l-2.175 5.592a1.188 1.188 0 0 0 .676 1.534 1.187 1.187 0 0 0 1.532-.678l1.837-4.722 2.63.731c-.064.104-.133.201-.185.312l-3.372 7.309c-.049.107-.075.217-.109.328l-4.098 6.871-6.859 2.294a1.751 1.751 0 0 0 2.081 2.819l7.018-2.417c.215-.156.371-.36.489-.58.088-.094.189-.168.256-.284l2.443-4.096 4.337 3.696-4.641 5.23a1.75 1.75 0 1 0 2.622 2.32l5.791-6.524a1.72 1.72 0 0 0 .36-.676c.043-.132.043-.269.054-.406 0-.069.026-.132.021-.196a1.72 1.72 0 0 0-.601-1.274l-3.991-3.403c.288-.274.532-.6.709-.983l2.585-5.599.828 2.206c.035.196.1.388.239.549.125.149.284.248.454.317.017.009.038.01.059.016.107.038.216.075.329.08.133.012.269-.005.405-.043l.005-.002c.036-.009.073-.002.109-.017a1.17 1.17 0 0 0 .466-.34l4.71-3.998c.501-.421.289-1.166-.132-1.667zM23.69 6.602a3.301 3.301 0 1 0 0-6.602 3.301 3.301 0 0 0 0 6.602z" />
    </symbol>
    <symbol id="icon-quotes" viewBox="0 0 32 32">
      <path
        d="M8.201 17.469c1.546-.613 2.785-.452 3.719.481s1.21 2.421.831 4.463c-.292 1.517-.933 2.683-1.925 3.5-.963.787-2.085 1.181-3.369 1.181-1.75 0-2.96-.671-3.631-2.013-.671-1.371-.802-3.208-.394-5.512.233-1.254.613-2.523 1.137-3.806s1.225-2.596 2.1-3.938 2.013-2.508 3.413-3.5 2.946-1.633 4.637-1.925l-.437 4.638c-1.429.292-2.698 1.035-3.806 2.231-1.108 1.167-1.867 2.567-2.275 4.2zm13.169 0c1.546-.613 2.785-.452 3.719.481s1.21 2.421.831 4.463c-.292 1.517-.933 2.683-1.925 3.5-.963.787-2.085 1.181-3.369 1.181-1.75 0-2.96-.671-3.631-2.013-.671-1.371-.802-3.208-.394-5.512.233-1.254.613-2.523 1.137-3.806s1.225-2.596 2.1-3.938 2.013-2.508 3.413-3.5 2.946-1.633 4.637-1.925l-.437 4.638c-1.429.292-2.698 1.035-3.806 2.231-1.108 1.167-1.867 2.567-2.275 4.2z" />
    </symbol>
    <symbol id="icon-dumbbell" viewBox="0 0 32 32">
      <path
        d="M7.36 9.143H5.44c-.532 0-.96.459-.96 1.029v4.457h-.96c-.176 0-.32.154-.32.343v2.057c0 .188.144.343.32.343h.96v4.457c0 .57.428 1.028.96 1.028h1.92c.532 0 .96-.459.96-1.028V10.172c0-.57-.428-1.029-.96-1.029zm21.12 5.486h-.96v-4.457c0-.57-.428-1.029-.96-1.029h-1.92c-.532 0-.96.459-.96 1.029v11.657c0 .57.428 1.028.96 1.028h1.92c.532 0 .96-.459.96-1.028v-4.457h.96c.176 0 .32-.154.32-.343v-2.057c0-.189-.144-.343-.32-.343zM21.44 6.4h-1.92c-.532 0-.96.459-.96 1.029v7.2h-5.12v-7.2c0-.57-.428-1.029-.96-1.029h-1.92c-.532 0-.96.459-.96 1.029v17.143c0 .57.428 1.029.96 1.029h1.92c.532 0 .96-.459.96-1.029v-7.2h5.12v7.2c0 .57.428 1.029.96 1.029h1.92c.532 0 .96-.459.96-1.029V7.429c0-.57-.428-1.029-.96-1.029z" />
    </symbol>
</defs>
</svg>
