<svg xmlns="http://www.w3.org/2000/svg" version="1.0" viewBox="-0.04 92.83 375.04 214.08"><defs><clipPath id="a"><path d="M0 143.41h375v163.5H0Zm0 0"/></clipPath></defs><g clip-path="url(#a)"><path d="M365.477 186.691h-9.891l-4.645 32.536v-46.168c0-5.239-4.242-9.48-9.476-9.48h-8.758l-6.125 42.937V162.69c0-10.625-8.613-19.238-19.242-19.238-10.63 0-19.246 8.613-19.246 19.238v49.614H86.82V162.69c0-10.625-8.617-19.238-19.242-19.238-10.633 0-19.246 8.613-19.246 19.238v43.825l-6.121-42.938h-8.758a9.477 9.477 0 0 0-9.48 9.48v46.169l-4.641-32.536h-9.89a9.48 9.48 0 0 0-9.481 9.48v57.684a9.477 9.477 0 0 0 9.48 9.48h14.532v13.638c0 5.234 4.242 9.476 9.48 9.476h12.598l2.695-18.906v23.766c1.832 8.718 9.566 15.27 18.832 15.27 10.625 0 19.242-8.614 19.242-19.243v-49.61h201.274v49.61c0 10.629 8.617 19.242 19.246 19.242 9.262 0 16.996-6.55 18.828-15.27v-23.765l2.7 18.906h12.597a9.476 9.476 0 0 0 9.476-9.476v-13.637h14.536c5.234 0 9.476-4.242 9.476-9.48v-57.684c0-5.234-4.242-9.48-9.476-9.48"/></g><path d="M243.578 301.127 187.53 151.22l-56.047 149.907H107.75L187.53 92.83l79.766 208.297Zm-2.094-196.563Zm0 0"/></svg>