<svg aria-hidden="true" style="position: absolute; width: 0; height: 0; overflow: hidden;" version="1.1" xmlns="http://www.w3.org/2000/svg" xmlns:xlink="http://www.w3.org/1999/xlink">
<defs>
<symbol id="icon-logo" viewBox="0 0 56 32">
<path d="M54.636 14.030h-1.478l-0.694 4.863v-6.901c0-0.783-0.634-1.417-1.416-1.417h-1.309l-0.916 6.418v-6.551c0-1.588-1.287-2.876-2.876-2.876s-2.877 1.287-2.877 2.876v7.416h-30.086v-7.416c0-1.588-1.288-2.876-2.876-2.876-1.589 0-2.877 1.287-2.877 2.876v6.551l-0.915-6.418h-1.309c-0 0-0 0-0 0-0.782 0-1.417 0.634-1.417 1.417 0 0 0 0 0 0v-0 6.901l-0.694-4.863h-1.478c-0 0-0 0-0 0-0.783 0-1.417 0.634-1.417 1.417v0 8.622c0 0 0 0 0 0 0 0.782 0.634 1.417 1.417 1.417 0 0 0 0 0 0h2.172v2.039c0 0.782 0.634 1.416 1.417 1.416h1.883l0.403-2.826v3.552c0.274 1.303 1.43 2.282 2.815 2.282 1.588 0 2.876-1.288 2.876-2.876v-7.416h30.086v7.416c0 1.589 1.288 2.876 2.877 2.876 1.384 0 2.541-0.979 2.814-2.282v-3.552l0.404 2.826h1.883c0.782 0 1.416-0.634 1.416-1.416v0-2.038h2.173c0.782 0 1.416-0.634 1.416-1.417v-8.622c0-0.782-0.634-1.417-1.416-1.417z"></path>
<path d="M36.415 31.136l-8.378-22.408-8.378 22.408h-3.548l11.925-31.136 11.923 31.136z"></path>
</symbol>
<symbol id="icon-running" viewBox="0 0 32 32">
      <path
        d="M29.647 9.451a1.185 1.185 0 0 0-1.667-.149l-3.282 2.757-1.509-3.739a1.163 1.163 0 0 0-.229-.362 3.215 3.215 0 0 0-1.582-1.617 3.24 3.24 0 0 0-.982-.262c-.073-.038-.139-.088-.222-.114l-5.775-1.61a1.19 1.19 0 0 0-.917.125 1.155 1.155 0 0 0-.719.672l-2.175 5.592a1.188 1.188 0 0 0 .676 1.534 1.187 1.187 0 0 0 1.532-.678l1.837-4.722 2.63.731c-.064.104-.133.201-.185.312l-3.372 7.309c-.049.107-.075.217-.109.328l-4.098 6.871-6.859 2.294a1.751 1.751 0 0 0 2.081 2.819l7.018-2.417c.215-.156.371-.36.489-.58.088-.094.189-.168.256-.284l2.443-4.096 4.337 3.696-4.641 5.23a1.75 1.75 0 1 0 2.622 2.32l5.791-6.524a1.72 1.72 0 0 0 .36-.676c.043-.132.043-.269.054-.406 0-.069.026-.132.021-.196a1.72 1.72 0 0 0-.601-1.274l-3.991-3.403c.288-.274.532-.6.709-.983l2.585-5.599.828 2.206c.035.196.1.388.239.549.125.149.284.248.454.317.017.009.038.01.059.016.107.038.216.075.329.08.133.012.269-.005.405-.043l.005-.002c.036-.009.073-.002.109-.017a1.17 1.17 0 0 0 .466-.34l4.71-3.998c.501-.421.289-1.166-.132-1.667zM23.69 6.602a3.301 3.301 0 1 0 0-6.602 3.301 3.301 0 0 0 0 6.602z" />
    </symbol>
    <symbol id="icon-quotes" viewBox="0 0 32 32">
      <path
        d="M8.201 17.469c1.546-.613 2.785-.452 3.719.481s1.21 2.421.831 4.463c-.292 1.517-.933 2.683-1.925 3.5-.963.787-2.085 1.181-3.369 1.181-1.75 0-2.96-.671-3.631-2.013-.671-1.371-.802-3.208-.394-5.512.233-1.254.613-2.523 1.137-3.806s1.225-2.596 2.1-3.938 2.013-2.508 3.413-3.5 2.946-1.633 4.637-1.925l-.437 4.638c-1.429.292-2.698 1.035-3.806 2.231-1.108 1.167-1.867 2.567-2.275 4.2zm13.169 0c1.546-.613 2.785-.452 3.719.481s1.21 2.421.831 4.463c-.292 1.517-.933 2.683-1.925 3.5-.963.787-2.085 1.181-3.369 1.181-1.75 0-2.96-.671-3.631-2.013-.671-1.371-.802-3.208-.394-5.512.233-1.254.613-2.523 1.137-3.806s1.225-2.596 2.1-3.938 2.013-2.508 3.413-3.5 2.946-1.633 4.637-1.925l-.437 4.638c-1.429.292-2.698 1.035-3.806 2.231-1.108 1.167-1.867 2.567-2.275 4.2z" />
    </symbol>
    <symbol id="icon-dumbbell" viewBox="0 0 32 32">
      <path
        d="M7.36 9.143H5.44c-.532 0-.96.459-.96 1.029v4.457h-.96c-.176 0-.32.154-.32.343v2.057c0 .188.144.343.32.343h.96v4.457c0 .57.428 1.028.96 1.028h1.92c.532 0 .96-.459.96-1.028V10.172c0-.57-.428-1.029-.96-1.029zm21.12 5.486h-.96v-4.457c0-.57-.428-1.029-.96-1.029h-1.92c-.532 0-.96.459-.96 1.029v11.657c0 .57.428 1.028.96 1.028h1.92c.532 0 .96-.459.96-1.028v-4.457h.96c.176 0 .32-.154.32-.343v-2.057c0-.189-.144-.343-.32-.343zM21.44 6.4h-1.92c-.532 0-.96.459-.96 1.029v7.2h-5.12v-7.2c0-.57-.428-1.029-.96-1.029h-1.92c-.532 0-.96.459-.96 1.029v17.143c0 .57.428 1.029.96 1.029h1.92c.532 0 .96-.459.96-1.029v-7.2h5.12v7.2c0 .57.428 1.029.96 1.029h1.92c.532 0 .96-.459.96-1.029V7.429c0-.57-.428-1.029-.96-1.029z" />
    </symbol>
    <symbol id="icon-slide-card1" viewBox="0 0 32 32">
<path fill="#fdd0af" style="fill: var(--color1, #fdd0af)" d="M28.3 21.36c-0.268-0.509-0.425-1.112-0.425-1.752 0-0.006 0-0.012 0-0.019v0.001c-0.085-0.955-0.18-2.035-1.125-2.85l-6.5-7.635s-0.035-0.025-0.050-0.040c-0.019-0.021-0.040-0.039-0.064-0.054l-0.001-0.001c-0.032-0.019-0.068-0.034-0.107-0.044l-0.003-0.001h-0.175c-0.013-0.002-0.027-0.004-0.043-0.004s-0.030 0.001-0.044 0.004l0.002-0c-0.034 0.008-0.064 0.020-0.092 0.036l0.002-0.001c-0.033 0.011-0.061 0.026-0.086 0.045l0.001-0h-0.030c-0.013 0.012-0.024 0.025-0.034 0.039l-0.001 0.001c-0.024 0.025-0.045 0.053-0.064 0.083l-0.001 0.002c-0.017 0.024-0.031 0.053-0.040 0.083l-0 0.002c-0.010 0.016-0.018 0.034-0.024 0.053l-0.001 0.002c-0.289 1.236-0.962 2.283-1.885 3.037l-0.010 0.008c-0.013 0.009-0.023 0.021-0.030 0.034l-0 0.001h-0.030c-0.011 0.014-0.021 0.031-0.029 0.048l-0.001 0.002c-0.020 0.029-0.038 0.059-0.055 0.090-0.001 0.013-0.002 0.028-0.002 0.043s0.001 0.030 0.002 0.044l-0-0.002v0.1c-0.001 0.013-0.002 0.028-0.002 0.043s0.001 0.030 0.002 0.044l-0-0.002c-0.002 0.015-0.003 0.032-0.003 0.050s0.001 0.035 0.004 0.052l-0-0.002c0.012 0.029 0.025 0.057 0.040 0.085 0.009 0.019 0.019 0.036 0.030 0.051l-0-0.001 0.030 0.025v0.040c0.282 0.25 0.511 0.552 0.673 0.893l0.007 0.017c0.015 0.033 0.035 0.063 0.060 0.090 0.18 0.285 0.975 2.67 0.63 4.225-0.059 0.341-0.216 0.639-0.44 0.87l0-0c-0.38-0.104-0.816-0.163-1.267-0.163-1.309 0-2.5 0.503-3.392 1.326l0.003-0.003c-3.095-1.575-7.19-1-9.6 1.43-0.8 0.798-1.295 1.901-1.295 3.12 0 1.207 0.485 2.3 1.271 3.095l-0-0c1.351 1.521 3.312 2.474 5.496 2.474 0.991 0 1.936-0.196 2.798-0.552l-0.049 0.018c1.113 0.355 2.392 0.559 3.72 0.56h0c4.255 0 8.7-2.060 12.435-5.875 0.402-0.331 0.659-0.828 0.665-1.384v-0.001c-0.020-0.748-0.351-1.414-0.868-1.878l-0.002-0.002z"></path>
<path fill="#fab07f" style="fill: var(--color2, #fab07f)" d="M28.3 21.36c-0.268-0.509-0.425-1.112-0.425-1.752 0-0.006 0-0.012 0-0.019v0.001c-0.085-0.955-0.18-2.035-1.125-2.85l-6.5-7.635s-0.035-0.025-0.050-0.040c-0.019-0.021-0.040-0.039-0.064-0.054l-0.001-0.001c-0.032-0.019-0.068-0.034-0.107-0.044l-0.003-0.001h-0.175c-0.013-0.002-0.027-0.004-0.043-0.004s-0.030 0.001-0.044 0.004l0.002-0c-0.034 0.008-0.064 0.020-0.092 0.036l0.002-0.001c-0.033 0.011-0.061 0.026-0.086 0.045l0.001-0h-0.030c-0.013 0.012-0.024 0.025-0.034 0.039l-0.001 0.001c-0.024 0.025-0.045 0.053-0.064 0.083l-0.001 0.002c-0.017 0.024-0.031 0.053-0.040 0.083l-0 0.002c-0.010 0.016-0.018 0.034-0.024 0.053l-0.001 0.002c-0.289 1.236-0.962 2.283-1.885 3.037l-0.010 0.008c-0.013 0.009-0.023 0.021-0.030 0.034l-0 0.001h-0.030c-0.011 0.014-0.021 0.031-0.029 0.048l-0.001 0.002c-0.020 0.029-0.038 0.059-0.055 0.090-0.001 0.013-0.002 0.028-0.002 0.043s0.001 0.030 0.002 0.044l-0-0.002v0.1c-0.001 0.013-0.002 0.028-0.002 0.043s0.001 0.030 0.002 0.044l-0-0.002c-0.002 0.015-0.003 0.032-0.003 0.050s0.001 0.035 0.004 0.052l-0-0.002c0.012 0.029 0.025 0.057 0.040 0.085 0.009 0.019 0.019 0.036 0.030 0.051l-0-0.001 0.030 0.025v0.040c0.282 0.25 0.511 0.552 0.673 0.893l0.007 0.017c0.015 0.033 0.035 0.063 0.060 0.090 0.18 0.285 0.975 2.67 0.63 4.225-0.059 0.341-0.216 0.639-0.44 0.87l0-0c-0.38-0.104-0.816-0.163-1.267-0.163-1.309 0-2.5 0.503-3.392 1.326l0.003-0.003c-3.095-1.575-7.19-1-9.6 1.43-0.8 0.798-1.295 1.901-1.295 3.12 0 1.207 0.485 2.3 1.271 3.095l-0-0c1.351 1.521 3.312 2.474 5.496 2.474 0.991 0 1.936-0.196 2.798-0.552l-0.049 0.018c1.113 0.355 2.392 0.559 3.72 0.56h0c4.255 0 8.7-2.060 12.435-5.875 0.402-0.331 0.659-0.828 0.665-1.384v-0.001c-0.020-0.748-0.351-1.414-0.868-1.878l-0.002-0.002zM27.8 23.895c-4.285 4.38-9.5 6.32-14.145 5.35 0.299-0.198 0.585-0.415 0.855-0.65 0.104-0.092 0.169-0.226 0.169-0.375 0-0.277-0.224-0.501-0.501-0.501-0.128 0-0.244 0.048-0.333 0.127l0.001-0c-0.486 0.437-1.047 0.805-1.659 1.079l-0.041 0.016h-0.035c-0.746 0.332-1.615 0.525-2.531 0.525-1.886 0-3.579-0.82-4.744-2.124l-0.005-0.006c-0.617-0.618-0.998-1.471-0.998-2.413s0.381-1.795 0.998-2.413l-0 0c2.5-2.525 6.5-2.5 8.925-0.97l1.285 1.070c0.086 0.071 0.197 0.114 0.318 0.114 0.276 0 0.5-0.224 0.5-0.5 0-0.129-0.049-0.246-0.129-0.335l0 0c-0.327-0.372-0.688-0.7-1.081-0.987l-0.019-0.013c0.675-0.539 1.542-0.865 2.484-0.865 0.423 0 0.831 0.066 1.214 0.188l-0.028-0.008 1.135 0.555c0.064 0.032 0.14 0.051 0.221 0.051 0.276 0 0.5-0.224 0.5-0.5 0-0.17-0.085-0.32-0.214-0.41l-0.002-0.001c-0.181-0.123-0.37-0.235-0.565-0.335 0.252-0.375 0.428-0.822 0.498-1.303l0.002-0.017c0.018-0.215 0.028-0.465 0.028-0.717 0-1.439-0.333-2.801-0.927-4.012l0.024 0.054c-0.146-0.301-0.313-0.56-0.506-0.797l0.006 0.007c0.675-0.641 1.212-1.422 1.564-2.296l0.016-0.044 5.92 6.98 0.060 0.060c0.66 0.55 0.725 1.315 0.805 2.2 0.003 0.846 0.239 1.636 0.646 2.31l-0.011-0.020c0.020 0.035 0.045 0.065 0.075 0.090l0 0c0.337 0.284 0.559 0.696 0.59 1.16l0 0.005c-0.007 0.274-0.14 0.515-0.343 0.668l-0.002 0.002h-0.020z"></path>
<path fill="#999" style="fill: var(--color3, #999)" d="M19.5 1.62c-0.089-0.082-0.208-0.133-0.339-0.133-0.276 0-0.5 0.224-0.5 0.5 0 0.156 0.071 0.295 0.183 0.387l0.001 0.001c1.596 1.376 2.6 3.401 2.6 5.66 0 0.002 0 0.004 0 0.006v-0c0 0.276 0.224 0.5 0.5 0.5s0.5-0.224 0.5-0.5v0c0-0.001 0-0.002 0-0.002 0-2.561-1.137-4.856-2.934-6.408l-0.011-0.009zM10.65 14.705c-2.454-1.249-4.105-3.755-4.105-6.648 0-0.006 0-0.012 0-0.018v0.001c0-0.276-0.224-0.5-0.5-0.5s-0.5 0.224-0.5 0.5v0c-0 0.008-0 0.017-0 0.027 0 3.277 1.873 6.117 4.607 7.506l0.048 0.022c0.063 0.035 0.137 0.055 0.217 0.055 0.003 0 0.006-0 0.008-0h-0c0.275-0.002 0.497-0.225 0.497-0.5 0-0.193-0.109-0.36-0.269-0.444l-0.003-0.001z"></path>
<path fill="#4d4d4d" style="fill: var(--color4, #4d4d4d)" d="M14.005 14.58c3.612 0 6.54-2.928 6.54-6.54s-2.928-6.54-6.54-6.54-6.54 2.928-6.54 6.54 2.928 6.54 6.54 6.54z"></path>
<path fill="#999" style="fill: var(--color3, #999)" d="M14.005 10.375c1.29 0 2.335-1.045 2.335-2.335s-1.045-2.335-2.335-2.335v0c-1.29 0-2.335 1.045-2.335 2.335s1.045 2.335 2.335 2.335v0z"></path>
</symbol>
<symbol id="icon-fitness" viewBox="0 0 32 32">
<path fill="#fdd0af" style="fill: var(--color4, #fdd0af)" d="M28.3 21.36c-0.268-0.509-0.425-1.112-0.425-1.752 0-0.006 0-0.012 0-0.019v0.001c-0.085-0.955-0.18-2.035-1.125-2.85l-6.5-7.635s-0.035-0.025-0.050-0.040c-0.019-0.021-0.040-0.039-0.064-0.054l-0.001-0.001c-0.032-0.019-0.068-0.034-0.107-0.044l-0.003-0.001h-0.175c-0.013-0.002-0.027-0.004-0.043-0.004s-0.030 0.001-0.044 0.004l0.002-0c-0.034 0.008-0.064 0.020-0.092 0.036l0.002-0.001c-0.033 0.011-0.061 0.026-0.086 0.045l0.001-0h-0.030c-0.013 0.012-0.024 0.025-0.034 0.039l-0.001 0.001c-0.025 0.026-0.047 0.055-0.065 0.085-0.017 0.024-0.031 0.053-0.040 0.083l-0 0.002c-0.010 0.016-0.018 0.034-0.024 0.053l-0.001 0.002c-0.289 1.236-0.962 2.283-1.885 3.037l-0.010 0.008c-0.013 0.009-0.023 0.021-0.030 0.034l-0 0.001h-0.030c-0.011 0.014-0.021 0.031-0.029 0.048l-0.001 0.002c-0.020 0.029-0.038 0.059-0.055 0.090-0.001 0.013-0.002 0.028-0.002 0.043s0.001 0.030 0.002 0.044l-0-0.002v0.1c-0.001 0.013-0.002 0.028-0.002 0.043s0.001 0.030 0.002 0.044l-0-0.002c-0.002 0.015-0.003 0.032-0.003 0.050s0.001 0.035 0.004 0.052l-0-0.002c0.012 0.029 0.025 0.057 0.040 0.085 0.009 0.019 0.019 0.036 0.030 0.051l-0-0.001 0.030 0.025v0.040c0.282 0.25 0.511 0.552 0.673 0.893l0.007 0.017c0.015 0.033 0.035 0.063 0.060 0.090 0.18 0.285 0.975 2.67 0.63 4.225-0.059 0.341-0.216 0.639-0.44 0.87l0-0c-0.38-0.104-0.816-0.163-1.267-0.163-1.309 0-2.5 0.503-3.392 1.326l0.003-0.003c-3.095-1.575-7.19-1-9.6 1.43-0.8 0.798-1.295 1.901-1.295 3.12 0 1.207 0.485 2.3 1.271 3.095l-0-0c1.351 1.521 3.312 2.474 5.496 2.474 0.991 0 1.936-0.196 2.798-0.552l-0.049 0.018c1.113 0.355 2.392 0.559 3.72 0.56h0c4.255 0 8.7-2.060 12.435-5.875 0.402-0.331 0.659-0.828 0.665-1.384v-0.001c-0.020-0.748-0.351-1.414-0.868-1.878l-0.002-0.002z"></path>
<path fill="#fab07f" style="fill: var(--color5, #fab07f)" d="M28.3 21.36c-0.268-0.509-0.425-1.112-0.425-1.752 0-0.006 0-0.012 0-0.019v0.001c-0.085-0.955-0.18-2.035-1.125-2.85l-6.5-7.635s-0.035-0.025-0.050-0.040c-0.019-0.021-0.040-0.039-0.064-0.054l-0.001-0.001c-0.032-0.019-0.068-0.034-0.107-0.044l-0.003-0.001h-0.175c-0.013-0.002-0.027-0.004-0.043-0.004s-0.030 0.001-0.044 0.004l0.002-0c-0.034 0.008-0.064 0.020-0.092 0.036l0.002-0.001c-0.033 0.011-0.061 0.026-0.086 0.045l0.001-0h-0.030c-0.013 0.012-0.024 0.025-0.034 0.039l-0.001 0.001c-0.025 0.026-0.047 0.055-0.065 0.085-0.017 0.024-0.031 0.053-0.040 0.083l-0 0.002c-0.010 0.016-0.018 0.034-0.024 0.053l-0.001 0.002c-0.289 1.236-0.962 2.283-1.885 3.037l-0.010 0.008c-0.013 0.009-0.023 0.021-0.030 0.034l-0 0.001h-0.030c-0.011 0.014-0.021 0.031-0.029 0.048l-0.001 0.002c-0.020 0.029-0.038 0.059-0.055 0.090-0.001 0.013-0.002 0.028-0.002 0.043s0.001 0.030 0.002 0.044l-0-0.002v0.1c-0.001 0.013-0.002 0.028-0.002 0.043s0.001 0.030 0.002 0.044l-0-0.002c-0.002 0.015-0.003 0.032-0.003 0.050s0.001 0.035 0.004 0.052l-0-0.002c0.012 0.029 0.025 0.057 0.040 0.085 0.009 0.019 0.019 0.036 0.030 0.051l-0-0.001 0.030 0.025v0.040c0.282 0.25 0.511 0.552 0.673 0.893l0.007 0.017c0.015 0.033 0.035 0.063 0.060 0.090 0.18 0.285 0.975 2.67 0.63 4.225-0.059 0.341-0.216 0.639-0.44 0.87l0-0c-0.38-0.104-0.816-0.163-1.267-0.163-1.309 0-2.5 0.503-3.392 1.326l0.003-0.003c-3.095-1.575-7.19-1-9.6 1.43-0.8 0.798-1.295 1.901-1.295 3.12 0 1.207 0.485 2.3 1.271 3.095l-0-0c1.351 1.521 3.312 2.474 5.496 2.474 0.991 0 1.936-0.196 2.798-0.552l-0.049 0.018c1.113 0.355 2.392 0.559 3.72 0.56h0c4.255 0 8.7-2.060 12.435-5.875 0.402-0.331 0.659-0.828 0.665-1.384v-0.001c-0.020-0.748-0.351-1.414-0.868-1.878l-0.002-0.002zM27.8 23.895c-4.285 4.38-9.5 6.32-14.145 5.35 0.3-0.198 0.585-0.415 0.855-0.65 0.104-0.092 0.169-0.226 0.169-0.375 0-0.129-0.049-0.247-0.129-0.336l0 0c-0.092-0.102-0.225-0.167-0.373-0.167-0.128 0-0.245 0.048-0.333 0.127l0.001-0c-0.486 0.437-1.047 0.805-1.659 1.079l-0.041 0.016h-0.035c-0.746 0.332-1.615 0.525-2.531 0.525-1.886 0-3.579-0.82-4.744-2.124l-0.005-0.006c-0.617-0.618-0.998-1.471-0.998-2.413s0.381-1.795 0.998-2.413l-0 0c2.5-2.525 6.5-2.5 8.925-0.97l1.285 1.070c0.086 0.071 0.197 0.114 0.318 0.114 0.276 0 0.5-0.224 0.5-0.5 0-0.129-0.049-0.246-0.129-0.335l0 0c-0.327-0.372-0.688-0.7-1.081-0.987l-0.019-0.013c0.676-0.539 1.542-0.865 2.484-0.865 0.423 0 0.831 0.066 1.214 0.188l-0.028-0.008 1.135 0.555c0.064 0.032 0.14 0.051 0.221 0.051 0.276 0 0.5-0.224 0.5-0.5 0-0.17-0.085-0.32-0.214-0.41l-0.002-0.001c-0.181-0.123-0.37-0.235-0.565-0.335 0.252-0.375 0.428-0.822 0.498-1.303l0.002-0.017c0.018-0.215 0.028-0.465 0.028-0.717 0-1.439-0.333-2.801-0.927-4.012l0.024 0.054c-0.146-0.301-0.313-0.56-0.506-0.797l0.006 0.007c0.675-0.641 1.212-1.422 1.564-2.296l0.016-0.044 5.92 6.98 0.060 0.060c0.66 0.55 0.725 1.315 0.805 2.2 0.003 0.846 0.239 1.636 0.646 2.31l-0.011-0.020c0.020 0.035 0.045 0.065 0.075 0.090l0 0c0.337 0.284 0.559 0.696 0.59 1.16l0 0.005c-0.007 0.274-0.14 0.515-0.343 0.668l-0.002 0.002h-0.020z"></path>
<path fill="#999" style="fill: var(--color6, #999)" d="M19.5 1.62c-0.089-0.082-0.208-0.133-0.339-0.133-0.276 0-0.5 0.224-0.5 0.5 0 0.156 0.071 0.295 0.183 0.387l0.001 0.001c1.596 1.376 2.6 3.401 2.6 5.66 0 0.002 0 0.004 0 0.006v-0c0 0.276 0.224 0.5 0.5 0.5s0.5-0.224 0.5-0.5v0c0-0.001 0-0.001 0-0.002 0-2.561-1.137-4.856-2.934-6.409l-0.011-0.009zM10.65 14.705c-2.454-1.249-4.105-3.755-4.105-6.648 0-0.006 0-0.012 0-0.018v0.001c0-0.276-0.224-0.5-0.5-0.5s-0.5 0.224-0.5 0.5v0c-0 0.008-0 0.017-0 0.027 0 3.277 1.873 6.117 4.607 7.506l0.048 0.022c0.063 0.035 0.137 0.055 0.217 0.055 0.003 0 0.006-0 0.008-0h-0c0.275-0.002 0.497-0.225 0.497-0.5 0-0.193-0.109-0.36-0.269-0.444l-0.003-0.001z"></path>
<path fill="#4d4d4d" style="fill: var(--color7, #4d4d4d)" d="M14.005 14.58c3.612 0 6.54-2.928 6.54-6.54s-2.928-6.54-6.54-6.54-6.54 2.928-6.54 6.54 2.928 6.54 6.54 6.54z"></path>
<path fill="#999" style="fill: var(--color6, #999)" d="M14.005 10.375c1.29 0 2.335-1.045 2.335-2.335s-1.045-2.335-2.335-2.335v0c-1.29 0-2.335 1.045-2.335 2.335s1.045 2.335 2.335 2.335v0z"></path>
<path fill="#000" style="fill: var(--color8, #000)" d="M28.3 21.36c-0.268-0.509-0.425-1.112-0.425-1.752 0-0.006 0-0.012 0-0.019v0.001c-0.085-0.955-0.18-2.035-1.125-2.85l-6.33-7.445c0.079-0.382 0.124-0.82 0.124-1.27 0-3.62-2.935-6.555-6.555-6.555s-6.555 2.935-6.555 6.555c0 3.62 2.935 6.555 6.555 6.555 1.395 0 2.689-0.436 3.752-1.179l-0.021 0.014c0.165 0.184 0.303 0.392 0.41 0.615 0.015 0.033 0.035 0.063 0.060 0.090 0.18 0.285 0.975 2.67 0.63 4.225-0.059 0.341-0.216 0.639-0.44 0.87l0-0c-0.38-0.104-0.816-0.163-1.267-0.163-1.309 0-2.5 0.503-3.392 1.326l0.003-0.003c-3.095-1.575-7.19-1-9.6 1.43-0.793 0.796-1.283 1.895-1.283 3.108 0 1.203 0.482 2.293 1.264 3.088l-0.001-0.001c1.351 1.521 3.312 2.474 5.496 2.474 0.991 0 1.936-0.196 2.798-0.552l-0.049 0.018c1.113 0.355 2.392 0.559 3.72 0.56h0c4.255 0 8.7-2.060 12.435-5.875 0.402-0.331 0.659-0.828 0.665-1.384v-0.001c-0.020-0.748-0.351-1.414-0.868-1.878l-0.002-0.002zM8.465 8.040c0-3.060 2.48-5.54 5.54-5.54s5.54 2.48 5.54 5.54c0 3.060-2.48 5.54-5.54 5.54-0.002 0-0.004 0-0.005 0h0c-3.056-0.006-5.532-2.483-5.535-5.54v-0zM27.82 23.895c-4.285 4.38-9.5 6.32-14.145 5.35 0.299-0.198 0.585-0.415 0.855-0.65 0.104-0.092 0.169-0.226 0.169-0.375 0-0.129-0.049-0.247-0.13-0.336l0 0c-0.092-0.102-0.225-0.167-0.373-0.167-0.128 0-0.245 0.048-0.333 0.127l0.001-0c-0.486 0.437-1.047 0.805-1.659 1.079l-0.041 0.016h-0.040c-0.748 0.335-1.622 0.53-2.541 0.53-1.888 0-3.583-0.822-4.748-2.129l-0.005-0.006c-0.617-0.618-0.998-1.471-0.998-2.413s0.381-1.795 0.998-2.413l-0 0c2.5-2.525 6.5-2.5 8.925-0.97l1.285 1.070c0.086 0.071 0.197 0.114 0.318 0.114 0.276 0 0.5-0.224 0.5-0.5 0-0.129-0.049-0.246-0.129-0.335l0 0c-0.327-0.372-0.688-0.7-1.081-0.987l-0.019-0.013c0.676-0.539 1.542-0.865 2.484-0.865 0.423 0 0.831 0.066 1.214 0.188l-0.028-0.008 1.135 0.555c0.064 0.032 0.14 0.051 0.221 0.051 0.276 0 0.5-0.224 0.5-0.5 0-0.17-0.085-0.32-0.214-0.41l-0.002-0.001c-0.181-0.123-0.37-0.235-0.565-0.335 0.252-0.375 0.428-0.822 0.498-1.303l0.002-0.017c0.018-0.215 0.028-0.465 0.028-0.717 0-1.439-0.333-2.801-0.927-4.012l0.024 0.054c-0.144-0.303-0.31-0.564-0.505-0.802l0.005 0.007c0.675-0.641 1.213-1.419 1.569-2.291l0.016-0.044 5.915 6.98 0.060 0.060c0.66 0.55 0.725 1.315 0.805 2.2 0.003 0.846 0.239 1.636 0.646 2.31l-0.011-0.020c0.020 0.035 0.045 0.065 0.075 0.090l0 0c0.337 0.284 0.559 0.696 0.59 1.16l0 0.005c-0.007 0.274-0.14 0.515-0.343 0.668l-0.002 0.002z"></path>
<path fill="#000" style="fill: var(--color8, #000)" d="M14 5.7c-0.002 0-0.003 0-0.005 0-1.292 0-2.34 1.048-2.34 2.34 0 1.291 1.045 2.337 2.335 2.34h0c0.002 0 0.003 0 0.005 0 1.292 0 2.34-1.048 2.34-2.34 0-1.291-1.045-2.337-2.335-2.34h-0zM14 9.375c-0.002 0-0.003 0-0.005 0-0.74 0-1.34-0.6-1.34-1.34 0-0.738 0.597-1.337 1.335-1.34h0c0.002 0 0.003 0 0.005 0 0.74 0 1.34 0.6 1.34 1.34 0 0.738-0.597 1.337-1.335 1.34h-0zM21.465 8.040c0 0.276 0.224 0.5 0.5 0.5s0.5-0.224 0.5-0.5v0c-0.005-2.565-1.149-4.861-2.954-6.411l-0.011-0.009c-0.089-0.082-0.208-0.133-0.339-0.133-0.276 0-0.5 0.224-0.5 0.5 0 0.156 0.071 0.295 0.183 0.387l0.001 0.001c1.605 1.374 2.616 3.401 2.62 5.664v0.001zM10.2 15.595c0.063 0.035 0.137 0.055 0.217 0.055 0.003 0 0.006-0 0.008-0h-0c0.275-0.002 0.497-0.225 0.497-0.5 0-0.193-0.109-0.36-0.269-0.444l-0.003-0.001c-2.454-1.249-4.105-3.755-4.105-6.648 0-0.006 0-0.012 0-0.018v0.001c0-0.276-0.224-0.5-0.5-0.5s-0.5 0.224-0.5 0.5v0c-0 0.008-0 0.017-0 0.027 0 3.277 1.873 6.117 4.607 7.506l0.048 0.022z"></path>
</symbol>
<symbol id="icon-nutrition" viewBox="0 0 32 32">
<path fill="#39b54a" style="fill: var(--color1, #39b54a)" d="M15.915 3.21c-0.004 0-0.010-0-0.015-0-1.865 0-3.521 0.893-4.565 2.276l-0.010 0.014c-0.061-0.307-0.137-0.571-0.232-0.827l0.012 0.037c-0.575-1.338-1.526-2.423-2.72-3.148l-0.030-0.017c-0.071-0.040-0.155-0.064-0.245-0.064-0.215 0-0.398 0.135-0.469 0.326l-0.001 0.003c-0.212 0.626-0.334 1.348-0.334 2.098s0.122 1.471 0.347 2.145l-0.014-0.048c0.548 1.284 1.441 2.331 2.563 3.054l0.027 0.016c0.067 0.2 0.251 0.343 0.47 0.345h0c0.276 0 0.5-0.224 0.5-0.5v0-0.39c0.087-0.328 0.149-0.662 0.185-1 0.61-1.96 2.406-3.358 4.53-3.36h0c0.276 0 0.5-0.224 0.5-0.5s-0.224-0.5-0.5-0.5v0 0.040z"></path>
<path fill="#a7b01b" style="fill: var(--color2, #a7b01b)" d="M16.2 27c-0.008-0.032-0.018-0.061-0.031-0.088l0.001 0.003c-0.011-0.036-0.026-0.068-0.046-0.096l0.001 0.001c-1.119-1.495-1.923-3.291-2.278-5.243l-0.012-0.077c-0.057-0.337-0.090-0.725-0.090-1.121 0-1.645 0.563-3.159 1.506-4.359l-0.012 0.015v-0.040c0.019-0.026 0.034-0.056 0.044-0.088l0.001-0.002c0.021-0.038 0.034-0.084 0.034-0.133 0-0.017-0.001-0.033-0.004-0.049l0 0.002c0.002-0.014 0.004-0.031 0.004-0.047s-0.001-0.033-0.004-0.049l0 0.002c-0.007-0.035-0.016-0.065-0.026-0.094l0.001 0.004-0.045-0.090v-0.040c-0.286-0.365-0.459-0.83-0.459-1.337 0-0.047 0.002-0.094 0.004-0.14l-0 0.006c0.015-0.258 0.015-0.517 0-0.775-0.214-2.275-1.805-4.127-3.922-4.726l-0.038-0.009c-0.343-0.101-0.74-0.164-1.149-0.175l-0.006-0c-2.691 0.167-4.844 2.266-5.093 4.918l-0.002 0.022c-0.007 0.115-0.011 0.25-0.011 0.385s0.004 0.27 0.012 0.403l-0.001-0.018c0.002 0.033 0.003 0.073 0.003 0.112 0 0.601-0.237 1.147-0.623 1.549l0.001-0.001c-1.523 1.586-2.46 3.744-2.46 6.121 0 0.024 0 0.048 0 0.073l-0-0.004c-0.001 0.047-0.001 0.103-0.001 0.159 0 2.537 1.033 4.833 2.701 6.491l0 0c1.314 1.247 3.095 2.014 5.054 2.014 0.157 0 0.313-0.005 0.467-0.015l-0.021 0.001h0.39c0.002 0 0.004 0 0.005 0 2.486 0 4.686-1.229 6.024-3.112l0.015-0.023c0.018-0.032 0.033-0.065 0.045-0.1l0.030-0.080c0.001-0.015 0.002-0.032 0.002-0.050s-0.001-0.035-0.002-0.052l0 0.002c-0.002-0.019-0.006-0.036-0.011-0.052l0.001 0.002z"></path>
<path fill="#fff" style="fill: var(--color3, #fff)" d="M9.41 28.5c-0 0-0 0-0.001 0-1.418 0-2.704-0.56-3.651-1.472l0.002 0.002c-1.289-1.289-2.087-3.069-2.087-5.036 0-0.058 0.001-0.115 0.002-0.172l-0 0.009c0-0.276 0.224-0.5 0.5-0.5s0.5 0.224 0.5 0.5v0c-0.002 0.055-0.003 0.121-0.003 0.186 0 1.682 0.677 3.206 1.773 4.315l-0.001-0.001c0.762 0.73 1.797 1.179 2.938 1.179 0.096 0 0.191-0.003 0.285-0.009l-0.013 0.001c0.004-0 0.008-0 0.012-0 0.277 0 0.501 0.224 0.501 0.501 0 0.262-0.2 0.476-0.456 0.499l-0.002 0h-0.3z"></path>
<path fill="#39b54a" style="fill: var(--color1, #39b54a)" d="M26.27 8.81c-1.638 0.001-3.097 0.769-4.037 1.964l-0.008 0.011c-0.054-0.235-0.112-0.431-0.181-0.621l0.011 0.036c-0.518-1.2-1.37-2.174-2.438-2.83l-0.027-0.015c-0.071-0.041-0.157-0.066-0.248-0.066-0.217 0-0.402 0.139-0.471 0.332l-0.001 0.003c-0.188 0.561-0.297 1.208-0.297 1.88s0.109 1.319 0.309 1.923l-0.012-0.043c0.486 1.144 1.279 2.079 2.277 2.726l0.023 0.014c0.075 0.187 0.255 0.317 0.465 0.317 0.271 0 0.492-0.216 0.5-0.486v-0.341c0.073-0.286 0.127-0.576 0.16-0.87 0.538-1.711 2.108-2.932 3.965-2.935h0c0.276 0 0.5-0.224 0.5-0.5s-0.224-0.5-0.5-0.5v0h0.010z"></path>
<path fill="#ed184b" style="fill: var(--color4, #ed184b)" d="M25.13 13.14c-0.332-0.068-0.713-0.108-1.103-0.108-0.87 0-1.694 0.194-2.432 0.542l0.035-0.015c-0.704-0.333-1.529-0.527-2.4-0.527-0.389 0-0.77 0.039-1.137 0.113l0.037-0.006c-3.5 0.695-5.875 4.5-5.28 8.53 0.44 2.95 2.435 6.345 4.64 7.9 0.717 0.551 1.617 0.895 2.597 0.93l0.008 0c0.004 0 0.009 0 0.013 0 0.225 0 0.445-0.024 0.657-0.069l-0.021 0.004c0.335-0.074 0.63-0.184 0.904-0.329l-0.019 0.009c0.279 0.147 0.576 0.255 0.885 0.32 0.212 0.044 0.428 0.066 0.645 0.065 0.989-0.034 1.892-0.379 2.621-0.938l-0.011 0.008c2.21-1.555 4.2-4.955 4.635-7.9 0.595-4.010-1.77-7.835-5.275-8.53z"></path>
<path fill="#fff" style="fill: var(--color3, #fff)" d="M14.94 22.13c-0.001 0-0.003 0-0.005 0-0.251 0-0.46-0.186-0.495-0.427l-0-0.003c-0.5-3.285 1.455-6.42 4.335-7 0.032-0.007 0.069-0.011 0.107-0.011 0.281 0 0.509 0.228 0.509 0.509 0 0.25-0.18 0.458-0.418 0.501l-0.003 0c-2.365 0.465-3.95 3.095-3.54 5.86 0.003 0.021 0.005 0.045 0.005 0.069 0 0.253-0.188 0.462-0.432 0.495l-0.003 0-0.060 0.005z"></path>
</symbol>
<symbol id="icon-boxing" viewBox="0 0 32 32">
<path fill="#f0615f" style="fill: var(--color1, #f0615f)" d="M16 30.5c-4.142-0-7.5-3.358-7.5-7.5v-0c0-0 0-0 0-0 0-1.666 0.675-3.175 1.768-4.267l0.111-0.111c1.311-1.311 2.121-3.121 2.121-5.121v-0c0-0.552 0.448-1 1-1v0h1.333c-0.258 0-0.466 0.447-0.466 1 0 0.009 0 0.019 0 0.030 0 0.97-0.094 1.917-0.273 2.834l0.015-0.093c-0.165 0.886-0.418 1.673-0.759 2.413l0.026-0.063-0.052 0.111c-0.528 1.132-0.825 2.667-0.825 4.268 0 2.071 0.392 3.946 1.025 5.303s1.509 2.197 2.475 2.197z"></path>
<path fill="#911d33" style="fill: var(--color2, #911d33)" d="M23.5 23c-0 4.142-3.358 7.5-7.5 7.5h-0c1.933 0 3.5-3.358 3.5-7.5 0-0.007 0-0.016 0-0.025 0-0.808-0.078-1.597-0.227-2.362l0.013 0.077c-0.138-0.738-0.349-1.395-0.632-2.011l0.022 0.053-0.052-0.111c-0.634-1.358-0.99-3.201-0.99-5.121 0-0.011 0-0.023 0-0.036 0-0.243-0.050-0.474-0.142-0.683l0.004 0.011c-0.084-0.181-0.201-0.293-0.329-0.293h1.333c0 0 0.001 0 0.001 0 0.552 0 0.999 0.447 0.999 0.999 0 0 0 0.001 0 0.001v-0c0 2 0.811 3.811 2.121 5.121l0.111 0.111c1.092 1.092 1.767 2.601 1.768 4.267v0z"></path>
<path fill="#fcc200" style="fill: var(--color3, #fcc200)" d="M13 10.5h6v2h-6z"></path>
<path fill="#e22526" style="fill: var(--color4, #e22526)" d="M19.5 23c0 4.142-1.567 7.5-3.5 7.5-0.966 0-1.841-0.839-2.475-2.197s-1.025-3.232-1.025-5.303c0-1.601 0.297-3.136 0.825-4.267l0.052-0.111c0.314-0.677 0.568-1.464 0.723-2.287l0.010-0.063c0.164-0.824 0.258-1.772 0.258-2.741 0-0.010 0-0.021-0-0.031v0.002c0-0.553 0.209-1 0.466-1h2.334c0.129 0 0.246 0.112 0.329 0.293 0.087 0.198 0.137 0.429 0.137 0.672 0 0.012-0 0.025-0 0.037l0-0.002c0 1.921 0.356 3.763 0.99 5.121l0.052 0.111c0.261 0.564 0.473 1.22 0.602 1.905l0.008 0.053c0.136 0.687 0.214 1.476 0.214 2.284 0 0.009 0 0.018-0 0.026v-0.001z"></path>
<path fill="#fcc200" style="fill: var(--color3, #fcc200)" d="M16 7c-1.105 0-2-0.895-2-2s0.895-2 2-2c1.105 0 2 0.895 2 2v0c-0.001 1.104-0.896 1.999-2 2h-0zM16 4c-0.552 0-1 0.448-1 1s0.448 1 1 1c0.552 0 1-0.448 1-1v0c-0.001-0.552-0.448-0.999-1-1h-0z"></path>
<path fill="#00a8e7" style="fill: var(--color5, #00a8e7)" d="M18.724 9.829l-1.776-3.553-0.198-0.343c-0.152-0.261-0.431-0.433-0.75-0.433 0 0 0 0-0 0v0c0 0 0 0-0 0-0.319 0-0.597 0.172-0.747 0.429l-0.002 0.004-0.198 0.343-1.776 3.553c-0.033 0.065-0.053 0.142-0.053 0.224 0 0.195 0.111 0.363 0.274 0.446l0.003 0.001c0.065 0.033 0.142 0.053 0.224 0.053 0.195 0 0.363-0.111 0.446-0.274l0.001-0.003 1.329-2.658v2.382c0 0.276 0.224 0.5 0.5 0.5v0c0.276 0 0.5-0.224 0.5-0.5v0-2.382l1.329 2.658c0.084 0.165 0.253 0.276 0.447 0.276 0.081 0 0.158-0.020 0.226-0.054l-0.003 0.001c0.165-0.084 0.276-0.253 0.276-0.447 0-0.082-0.020-0.158-0.054-0.226l0.001 0.003z"></path>
<path fill="#f98800" style="fill: var(--color6, #f98800)" d="M14.5 10.5h1v2h-1zM16.5 10.5h1v2h-1z"></path>
<path fill="#e22526" style="fill: var(--color4, #e22526)" d="M11 1v1.5c0 0.552 0.448 1 1 1v0h8c0.552 0 1-0.448 1-1v0-1.5z"></path>
<path fill="#35495e" style="fill: var(--color7, #35495e)" d="M1 1h30v1h-30z"></path>
<path fill="#000" style="fill: var(--color8, #000)" d="M21.5 2.5v-0.5h9.5v-1h-30v1h9.5v0.5c0.001 0.828 0.672 1.499 1.5 1.5h2.269c-0.169 0.287-0.269 0.632-0.269 1.001 0 0.681 0.341 1.282 0.861 1.642l0.007 0.004-1.676 3.353h-0.191c-0.276 0-0.5 0.224-0.5 0.5v0 1.883c-0.307 0.275-0.5 0.673-0.5 1.116 0 0 0 0 0 0v-0c0 0.005 0 0.012 0 0.018 0 1.856-0.755 3.536-1.975 4.749l-0.111 0.111c-1.182 1.176-1.914 2.804-1.914 4.603 0 0.006 0 0.013 0 0.019v-0.001c0 4.418 3.582 8 8 8s8-3.582 8-8v0c0-0.005 0-0.012 0-0.018 0-1.799-0.732-3.427-1.914-4.603l-0.111-0.111c-1.22-1.213-1.975-2.893-1.975-4.75 0-0.006 0-0.013 0-0.019v0.001c0-0 0-0 0-0 0-0.443-0.193-0.841-0.499-1.115l-0.001-0.001v-1.883c0-0.276-0.224-0.5-0.5-0.5v0h-0.191l-1.676-3.353c0.527-0.365 0.868-0.966 0.868-1.646 0-0.369-0.1-0.714-0.274-1.010l0.005 0.009h2.269c0.828-0.001 1.499-0.672 1.5-1.5v-0zM11.5 2.5v-0.5h9v0.5c-0 0.276-0.224 0.5-0.5 0.5h-8c-0.276-0-0.5-0.224-0.5-0.5v-0zM16.5 12h-1v-1h1zM15.5 7.618v2.382h-1.191zM13.5 11h1v1h-1zM9 23c0-0.004-0-0.010-0-0.015 0-1.524 0.62-2.903 1.621-3.899l0.111-0.111c1.401-1.393 2.268-3.322 2.268-5.454 0-0.007 0-0.015-0-0.022v0.001c0-0.276 0.224-0.5 0.5-0.5h0.414c-0.030 0.147-0.047 0.316-0.047 0.49 0 0.004 0 0.007 0 0.011v-0.001c0 1.836-0.344 3.626-0.943 4.91l-0.052 0.111c-0.562 1.205-0.872 2.796-0.872 4.479 0 2.075 0.381 4.033 1.072 5.515 0.195 0.422 0.408 0.783 0.653 1.12l-0.013-0.019c-2.763-0.98-4.708-3.57-4.711-6.615v-0zM13.978 28.092c-0.631-1.352-0.978-3.16-0.978-5.092 0-1.518 0.284-2.997 0.778-4.056l0.052-0.111c0.669-1.433 1.037-3.327 1.037-5.333-0-0.011-0.001-0.023-0.001-0.035 0-0.168 0.034-0.327 0.095-0.473l-0.003 0.008h2.084c0.058 0.137 0.092 0.297 0.092 0.465 0 0.012-0 0.025-0.001 0.037l0-0.002c0 2.006 0.368 3.9 1.037 5.333l0.052 0.111c0.494 1.059 0.778 2.538 0.778 4.056 0 1.932-0.347 3.74-0.978 5.092-0.566 1.213-1.303 1.908-2.022 1.908s-1.456-0.695-2.022-1.908zM21.268 18.975l0.111 0.111c1.002 0.996 1.621 2.375 1.621 3.899 0 0.005 0 0.010-0 0.016v-0.001c-0.004 3.045-1.948 5.635-4.662 6.6l-0.049 0.015c0.231-0.318 0.444-0.679 0.622-1.060l0.017-0.041c0.691-1.481 1.072-3.44 1.072-5.515 0-1.684-0.31-3.274-0.872-4.479l-0.052-0.111c-0.599-1.284-0.943-3.074-0.943-4.91 0-0.003 0-0.007 0-0.010 0-0.173-0.017-0.342-0.050-0.506l0.003 0.016h0.414c0.276 0 0.5 0.224 0.5 0.5v0c-0 0.006-0 0.014-0 0.021 0 2.131 0.867 4.060 2.267 5.454l0 0zM17.5 12v-1h1v1zM16.5 10v-2.382l1.191 2.382zM17 5c0 0.552-0.448 1-1 1s-1-0.448-1-1c0-0.552 0.448-1 1-1v0c0.552 0.001 0.999 0.448 1 1v0z"></path>
</symbol>
<symbol id="icon-gymnastics" viewBox="0 0 32 32">
<path fill="#5c6670" style="fill: var(--color1, #5c6670)" d="M8.417 9.748c-0.225 0-0.431-0.187-0.431-0.431v-8.867c0-0.244 0.206-0.45 0.431-0.45 0.244 0 0.45 0.206 0.45 0.45v8.867c0 0.244-0.206 0.431-0.45 0.431z"></path>
<path fill="#ff4646" style="fill: var(--color2, #ff4646)" d="M6.767 13.347c-2.25 0.712-3.731 2.774-3.731 5.155 0 2.981 2.4 5.38 5.38 5.38s5.399-2.4 5.399-5.38c0-2.381-1.481-4.443-3.731-5.155-0.244-0.094-0.375-0.337-0.281-0.581l-0.056-1.556c0.056-0.244 0.281-0.375 0.525-0.337 3.468 0.9 5.886 3.993 5.886 7.574 0.038 4.312-3.431 7.817-7.742 7.817-4.293 0-7.798-3.506-7.798-7.817 0-3.581 2.418-6.674 5.868-7.574l0.281 2.475z"></path>
<path fill="#c3c6c8" style="fill: var(--color3, #c3c6c8)" d="M10.236 14.866h-3.581c-0.244 0-0.45-0.206-0.45-0.431v-5.118c0-0.244 0.206-0.45 0.45-0.45h3.581c0.244 0 0.45 0.206 0.45 0.45v5.118c-0.037 0.225-0.206 0.431-0.45 0.431z"></path>
<path fill="#5c6670" style="fill: var(--color1, #5c6670)" d="M23.658 15.466c-0.244 0-0.45-0.187-0.45-0.431v-8.867c0-0.244 0.206-0.45 0.45-0.45 0.225 0 0.431 0.206 0.431 0.45v8.867c0 0.244-0.206 0.431-0.431 0.431z"></path>
<path fill="#ff4646" style="fill: var(--color2, #ff4646)" d="M21.989 19.065c-2.25 0.712-3.731 2.774-3.731 5.155 0 2.981 2.418 5.38 5.399 5.38 2.962 0 5.38-2.4 5.38-5.38 0-2.381-1.481-4.443-3.731-5.155-0.244-0.094-0.375-0.337-0.281-0.562l-0.056-1.575c0.056-0.244 0.281-0.375 0.525-0.319 3.468 0.881 5.886 3.974 5.886 7.555 0.038 4.312-3.431 7.817-7.724 7.817-4.312 0-7.817-3.506-7.817-7.817 0-3.581 2.418-6.674 5.868-7.555l0.281 2.456z"></path>
<path fill="#c3c6c8" style="fill: var(--color3, #c3c6c8)" d="M25.458 20.583h-3.581c-0.244 0-0.45-0.187-0.45-0.431v-5.118c0-0.244 0.206-0.45 0.45-0.45h3.581c0.244 0 0.45 0.206 0.45 0.45v5.118c-0.038 0.244-0.206 0.431-0.45 0.431z"></path>
</symbol>
<symbol id="icon-yoga" viewBox="0 0 32 32">
<path fill="#009ae0" style="fill: var(--color1, #009ae0)" d="M20.003 25.333h-8.003c-0.368 0-0.667-0.298-0.667-0.667v0-5.369c-0.094 0.096-0.196 0.184-0.306 0.262l-0.007 0.005-4.667 3.333c-0.377 0.272-0.848 0.435-1.357 0.435-0.864 0-1.618-0.47-2.022-1.167l-0.006-0.011c-0.179-0.328-0.284-0.719-0.284-1.134 0-0.815 0.405-1.535 1.025-1.97l0.008-0.005 4.122-2.941 2.133-4.262c0.556-1.101 1.678-1.842 2.972-1.842 0.001 0 0.002 0 0.004 0h6.102c0.003 0 0.007-0 0.011-0 1.295 0 2.417 0.742 2.964 1.824l0.009 0.019 2.133 4.262 4.127 2.945c0.628 0.436 1.034 1.153 1.034 1.966 0 0.393-0.095 0.763-0.263 1.090l0.006-0.013c-0.4 0.745-1.173 1.242-2.063 1.242-0.509 0-0.981-0.163-1.364-0.44l0.007 0.005-4.671-3.333c-0.115-0.083-0.217-0.171-0.31-0.266l-0-0v5.368c0 0 0 0 0 0 0 0.368-0.298 0.667-0.667 0.667-0 0-0.001 0-0.001 0h0z"></path>
<path fill="#009ae0" style="fill: var(--color1, #009ae0)" d="M20.333 5.667c0 2.393-1.94 4.333-4.333 4.333s-4.333-1.94-4.333-4.333c0-2.393 1.94-4.333 4.333-4.333s4.333 1.94 4.333 4.333z"></path>
<path fill="#0081bd" style="fill: var(--color2, #0081bd)" d="M10.405 30.415c-0.924-0.438-1.552-1.363-1.552-2.435 0-1.154 0.728-2.139 1.75-2.519l0.019-0.006 12.252-4.459c0.273-0.103 0.589-0.162 0.919-0.162 1.484 0 2.686 1.203 2.686 2.686 0 1.154-0.728 2.138-1.749 2.518l-0.019 0.006-12.252 4.459c-0.274 0.103-0.59 0.163-0.92 0.163-0.412 0-0.802-0.093-1.15-0.26l0.016 0.007z"></path>
<path fill="#009ae0" style="fill: var(--color1, #009ae0)" d="M20.461 30.667c-0.33-0-0.646-0.060-0.939-0.169l0.018 0.006-12.252-4.459c-1.040-0.386-1.768-1.37-1.768-2.524 0-1.484 1.203-2.686 2.686-2.686 0.33 0 0.645 0.059 0.937 0.168l-0.019-0.006 12.252 4.459c1.038 0.388 1.764 1.371 1.764 2.524 0 1.482-1.199 2.684-2.68 2.688h-0z"></path>
<path fill="#fac100" style="fill: var(--color3, #fac100)" d="M8 6.667h-0.667v-0.667c0-0.368-0.298-0.667-0.667-0.667s-0.667 0.298-0.667 0.667v0 0.667h-0.667c-0.368 0-0.667 0.298-0.667 0.667s0.298 0.667 0.667 0.667v0h0.667v0.667c0 0.368 0.298 0.667 0.667 0.667s0.667-0.298 0.667-0.667v0-0.667h0.667c0.368 0 0.667-0.298 0.667-0.667s-0.298-0.667-0.667-0.667v0zM28.667 12h-0.667v-0.667c0-0.368-0.298-0.667-0.667-0.667s-0.667 0.298-0.667 0.667v0 0.667h-0.667c-0.368 0-0.667 0.298-0.667 0.667s0.298 0.667 0.667 0.667v0h0.667v0.667c0 0.368 0.298 0.667 0.667 0.667s0.667-0.298 0.667-0.667v0-0.667h0.667c0.368 0 0.667-0.298 0.667-0.667s-0.298-0.667-0.667-0.667v0z"></path>
<path fill="#fac100" style="fill: var(--color3, #fac100)" d="M26 6.667c0 0.368-0.298 0.667-0.667 0.667s-0.667-0.298-0.667-0.667c0-0.368 0.298-0.667 0.667-0.667s0.667 0.298 0.667 0.667z"></path>
<path fill="#fac100" style="fill: var(--color3, #fac100)" d="M4 12.667c0 0.368-0.298 0.667-0.667 0.667s-0.667-0.298-0.667-0.667c0-0.368 0.298-0.667 0.667-0.667s0.667 0.298 0.667 0.667z"></path>
</symbol>
<symbol id="icon-run" viewBox="0 0 32 32">
<path fill="#009ae0" style="fill: var(--color1, #009ae0)" d="M26 29.333h-5.915c-2.46-0.005-4.68-1.030-6.261-2.674l-9.691-10.134c-0.801-0.837-1.294-1.974-1.294-3.226 0-1.232 0.478-2.353 1.258-3.187l-0.002 0.003 6.359-6.813c0.366-0.39 0.884-0.634 1.459-0.635h0.088c1.105 0 2 0.895 2 2v0 0.667c0 1.105 0.895 2 2 2v0h4c1.105 0 2 0.895 2 2v0 7.501c0 0.001 0 0.002 0 0.003 0 1.758 0.972 3.288 2.407 4.084l0.024 0.012 3.165 1.726c1.042 0.577 1.736 1.669 1.737 2.924v0.417c-0.002 1.84-1.493 3.331-3.333 3.333h-0z"></path>
<path fill="#eaeff0" style="fill: var(--color2, #eaeff0)" d="M4.133 16.525l9.691 10.133c1.583 1.646 3.802 2.669 6.26 2.675h5.916c1.84-0.002 3.331-1.493 3.333-3.333v-0.417c0-0.085-0.011-0.167-0.017-0.25h-8.857c-1.134-0-2.157-0.472-2.885-1.229l-0.001-0.001-13.481-13.989c-0.778 0.831-1.255 1.952-1.255 3.184 0 1.253 0.494 2.391 1.297 3.229l-0.002-0.002z"></path>
<path fill="#8fa5a5" style="fill: var(--color3, #8fa5a5)" d="M12 28.667h-8.667c-0.368 0-0.667-0.298-0.667-0.667s0.298-0.667 0.667-0.667v0h8.667c0.368 0 0.667 0.298 0.667 0.667s-0.298 0.667-0.667 0.667v0zM8.667 25.333h-5.333c-0.368 0-0.667-0.298-0.667-0.667s0.298-0.667 0.667-0.667v0h5.333c0.368 0 0.667 0.298 0.667 0.667s-0.298 0.667-0.667 0.667v0zM5.333 22h-2c-0.368 0-0.667-0.298-0.667-0.667s0.298-0.667 0.667-0.667v0h2c0.368 0 0.667 0.298 0.667 0.667s-0.298 0.667-0.667 0.667v0z"></path>
<path fill="#eaeff0" style="fill: var(--color2, #eaeff0)" d="M22 17.333h-2.667c-0.368 0-0.667-0.298-0.667-0.667s0.298-0.667 0.667-0.667v0h2.667c0.368 0 0.667 0.298 0.667 0.667s-0.298 0.667-0.667 0.667v0zM22 14.667h-2.667c-0.368 0-0.667-0.298-0.667-0.667s0.298-0.667 0.667-0.667v0h2.667c0.368 0 0.667 0.298 0.667 0.667s-0.298 0.667-0.667 0.667v0zM22 12h-2.667c-0.368 0-0.667-0.298-0.667-0.667s0.298-0.667 0.667-0.667v0h2.667c0.368 0 0.667 0.298 0.667 0.667s-0.298 0.667-0.667 0.667v0z"></path>
</symbol>
<symbol id="icon-over" viewBox="0 0 32 32">
<path fill="#2caee6" style="fill: var(--color1, #2caee6)" d="M2.333 25.667h1.333v4h-1.333zM13.667 25.667h1.333v4h-1.333zM15 27h1.333v1.333h-1.333zM1 27h1.333v1.333h-1.333zM11.667 24.333h2v6.667h-2zM3.667 24.333h2v6.667h-2z"></path>
<path fill="#f2b11b" style="fill: var(--color2, #f2b11b)" d="M24.667 21.154v2.277c0 0 0 0 0 0 0 0.386 0.128 0.742 0.344 1.028l-0.003-0.004 0.317 0.423c0.213 0.282 0.341 0.638 0.341 1.024 0 0 0 0 0 0v0 0.391c-0 0.471-0.191 0.898-0.5 1.207v0c-0.309 0.309-0.5 0.736-0.5 1.207v0 1.542c0 0.415 0.336 0.751 0.751 0.751h4.832c0.415 0 0.751-0.336 0.751-0.751v0-1.543c-0-0.471-0.191-0.898-0.5-1.207v0c-0.309-0.309-0.5-0.736-0.5-1.207v0-0.391c0-0 0-0 0-0 0-0.386 0.128-0.742 0.344-1.028l-0.003 0.004 0.317-0.423c0.213-0.282 0.341-0.638 0.341-1.024v0-2.278c0 0 0-0 0-0 0-0.538-0.249-1.018-0.637-1.33l-0.003-0.003-1.026-0.82v-1.333h-3v1.333l-1.026 0.821c-0.392 0.315-0.641 0.795-0.641 1.333 0 0 0 0 0 0v-0z"></path>
<path fill="#f2d89d" style="fill: var(--color3, #f2d89d)" d="M26.333 17.667h3v1.333h-3z"></path>
<path fill="#2caee6" style="fill: var(--color1, #2caee6)" d="M24.667 21.154v2.277c0 0 0 0 0 0 0 0.386 0.128 0.742 0.344 1.028l-0.003-0.004 0.317 0.423c0.029 0.039 0.051 0.081 0.077 0.122h4.863c0.025-0.041 0.048-0.083 0.077-0.122l0.317-0.423c0.213-0.282 0.341-0.638 0.341-1.024 0-0 0-0 0-0v0-2.278c0-0.052-0.004-0.103-0.009-0.154h-6.316c-0.005 0.045-0.008 0.099-0.009 0.153v0.001z"></path>
<path fill="#f2d89d" style="fill: var(--color3, #f2d89d)" d="M5.667 26.667h6v2h-6z"></path>
<path fill="#fd1e24" style="fill: var(--color4, #fd1e24)" d="M28.843 3.167c-1.332-1.338-3.175-2.167-5.212-2.167s-3.88 0.828-5.211 2.166l-0 0-1.42 1.423-1.42-1.423c-1.335-1.331-3.177-2.154-5.212-2.154-4.076 0-7.381 3.305-7.381 7.381 0 2.042 0.829 3.89 2.169 5.226l0 0 11.843 12.047 11.843-12.047c3.157-3.157 2.877-7.567 0-10.453z"></path>
<path fill="#000" style="fill: var(--color5, #000)" d="M16.333 26.667h-1v-1c0-0.184-0.149-0.333-0.333-0.333v0h-1v-1c0-0.184-0.149-0.333-0.333-0.333v0h-2c-0.184 0-0.333 0.149-0.333 0.333v0 2h-5.333v-2c0-0.184-0.149-0.333-0.333-0.333v0h-2c-0.184 0-0.333 0.149-0.333 0.333v0 1h-1c-0.184 0-0.333 0.149-0.333 0.333v0 1h-1c-0.184 0-0.333 0.149-0.333 0.333v0 1.333c0 0.184 0.149 0.333 0.333 0.333v0h1v1c0 0.184 0.149 0.333 0.333 0.333v0h1v1c0 0.184 0.149 0.333 0.333 0.333v0h2c0.184 0 0.333-0.149 0.333-0.333v0-2h5.333v2c0 0.184 0.149 0.333 0.333 0.333v0h2c0.184 0 0.333-0.149 0.333-0.333v0-1h1c0.184 0 0.333-0.149 0.333-0.333v0-1h1c0.184 0 0.333-0.149 0.333-0.333v0-1.333c0-0.184-0.149-0.333-0.333-0.333v0zM2 28h-0.667v-0.667h0.667zM3.333 29.333h-0.667v-3.333h0.667zM5.333 30.667h-1.333v-6h1.333zM11.333 28.333h-5.333v-1.333h5.333zM13.333 30.667h-1.333v-6h1.333zM14.667 29.333h-0.667v-3.333h0.667zM16 28h-0.667v-0.667h0.667zM30.608 25.078l0.317-0.423c0.254-0.337 0.407-0.763 0.408-1.224v-2.277c0-0.001 0-0.003 0-0.005 0-0.642-0.297-1.214-0.762-1.586l-0.004-0.003-0.901-0.72v-1.173c0-0.184-0.149-0.333-0.333-0.333v0h-3c-0.184 0-0.333 0.149-0.333 0.333v0 1.173l-0.901 0.721c-0.468 0.375-0.766 0.947-0.766 1.589 0 0.002 0 0.003 0 0.005v-0 2.277c0.001 0.461 0.154 0.887 0.412 1.229l-0.004-0.005 0.317 0.423c0.171 0.227 0.274 0.513 0.275 0.824v0.391c0 0.001 0 0.003 0 0.004 0 0.378-0.154 0.72-0.402 0.967l-0 0c-0.369 0.367-0.598 0.875-0.598 1.437 0 0.002 0 0.004 0 0.006v-0 1.542c0.001 0.598 0.486 1.083 1.084 1.084h4.832c0.598-0.001 1.083-0.486 1.084-1.084v-1.542c0-0.002 0-0.004 0-0.006 0-0.562-0.229-1.070-0.598-1.437l-0-0c-0.249-0.247-0.402-0.589-0.402-0.967 0-0.001 0-0.003 0-0.004v0-0.391c0.001-0.311 0.104-0.597 0.278-0.828l-0.003 0.003zM29 18v0.667h-2.333v-0.667zM25.515 20.081l0.935-0.748h2.766l0.935 0.747c0.186 0.152 0.33 0.35 0.416 0.577l0.003 0.009h-5.473c0.088-0.236 0.232-0.433 0.416-0.584l0.002-0.002zM30.667 28.707v1.542c-0 0.23-0.187 0.417-0.417 0.417h-4.832c-0.23-0-0.417-0.187-0.417-0.417v-1.542c0-0.001 0-0.003 0-0.004 0-0.378 0.154-0.72 0.402-0.967l0-0c0.369-0.367 0.598-0.875 0.598-1.437 0-0.002 0-0.004 0-0.006v0-0.391c-0.002-0.204-0.034-0.399-0.090-0.583l0.004 0.014h3.84c-0.053 0.17-0.085 0.365-0.087 0.568v0.392c0 0.002 0 0.004 0 0.006 0 0.562 0.229 1.070 0.598 1.437l0 0c0.249 0.247 0.402 0.589 0.402 0.967 0 0.001 0 0.003 0 0.004v-0zM30.083 24.667h-4.5l-0.309-0.412c-0.171-0.227-0.274-0.513-0.275-0.824v-2.098h5.667v2.098c-0.001 0.311-0.104 0.597-0.278 0.828l0.003-0.003z"></path>
<path fill="#000" style="fill: var(--color5, #000)" d="M27.952 24.505l-0.571-0.343 0.612-1.020-0.928 0.185c-0.020 0.004-0.042 0.006-0.065 0.006-0.184 0-0.333-0.149-0.333-0.333 0-0.054 0.013-0.105 0.036-0.151l-0.001 0.002 0.667-1.333 0.596 0.298-0.362 0.724 0.998-0.199c0.020-0.004 0.043-0.007 0.067-0.007 0.112 0 0.21 0.055 0.27 0.14l0.001 0.001c0.038 0.053 0.061 0.12 0.061 0.192 0 0.063-0.018 0.122-0.048 0.173l0.001-0.001zM29.080 2.932c-1.392-1.399-3.319-2.265-5.448-2.265s-4.056 0.866-5.448 2.264l-0 0-1.184 1.186-1.184-1.187c-1.392-1.399-3.319-2.265-5.448-2.265s-4.056 0.866-5.448 2.265l-0 0c-1.392 1.402-2.252 3.333-2.252 5.465 0 1.317 0.328 2.558 0.907 3.644l-0.020-0.042h-2.889v0.667h3.284c0.297 0.445 0.615 0.834 0.968 1.188l-0-0 11.843 12.047c0.061 0.061 0.145 0.1 0.238 0.1s0.177-0.038 0.238-0.1l0-0 11.841-12.045c0.358-0.358 0.684-0.747 0.976-1.162l0.019-0.028h1.26v-0.667h-0.843c1.641-2.933 1.172-6.476-1.41-9.068zM5.393 3.403c1.271-1.278 3.031-2.069 4.976-2.069s3.704 0.791 4.975 2.069l0 0 1.42 1.423c0.061 0.058 0.144 0.094 0.236 0.094s0.175-0.036 0.236-0.094l-0 0 1.42-1.424c1.271-1.278 3.031-2.069 4.976-2.069s3.704 0.791 4.975 2.068l0 0c2.452 2.461 2.813 5.858 1.098 8.597h-10.039c-0 0-0 0-0 0-0.143 0-0.265 0.090-0.312 0.217l-0.001 0.002-2.386 6.562-5.663-12.585c-0.053-0.115-0.165-0.194-0.297-0.197h-0c-0.132 0-0.246 0.074-0.304 0.183l-0.001 0.002-2.908 5.816h-3.465c-0.621-1.032-0.989-2.278-0.989-3.61 0-1.945 0.784-3.707 2.054-4.987l-0 0.001zM28.605 13.387l-11.605 11.805-11.607-11.807c-0.215-0.219-0.417-0.454-0.603-0.701l-0.013-0.018h3.223c0 0 0 0 0 0 0.13 0 0.242-0.074 0.297-0.182l0.001-0.002 2.686-5.372 5.712 12.693c0.054 0.117 0.169 0.196 0.304 0.196 0 0 0 0 0 0v0l0.012-0c0.138-0.005 0.255-0.094 0.3-0.217l0.001-0.002 2.587-7.114h9.337c-0.206 0.264-0.413 0.499-0.632 0.721l0.001-0.001z"></path>
</symbol>
</defs>
</svg>
