<svg aria-hidden="true" style="position: absolute; width: 0; height: 0; overflow: hidden;" version="1.1" xmlns="http://www.w3.org/2000/svg" xmlns:xlink="http://www.w3.org/1999/xlink">
<defs>
<symbol id="icon-logo" viewBox="0 0 56 32">
<path d="M54.636 14.030h-1.478l-0.694 4.863v-6.901c0-0.783-0.634-1.417-1.416-1.417h-1.309l-0.916 6.418v-6.551c0-1.588-1.287-2.876-2.876-2.876s-2.877 1.287-2.877 2.876v7.416h-30.086v-7.416c0-1.588-1.288-2.876-2.876-2.876-1.589 0-2.877 1.287-2.877 2.876v6.551l-0.915-6.418h-1.309c-0 0-0 0-0 0-0.782 0-1.417 0.634-1.417 1.417 0 0 0 0 0 0v-0 6.901l-0.694-4.863h-1.478c-0 0-0 0-0 0-0.783 0-1.417 0.634-1.417 1.417v0 8.622c0 0 0 0 0 0 0 0.782 0.634 1.417 1.417 1.417 0 0 0 0 0 0h2.172v2.039c0 0.782 0.634 1.416 1.417 1.416h1.883l0.403-2.826v3.552c0.274 1.303 1.43 2.282 2.815 2.282 1.588 0 2.876-1.288 2.876-2.876v-7.416h30.086v7.416c0 1.589 1.288 2.876 2.877 2.876 1.384 0 2.541-0.979 2.814-2.282v-3.552l0.404 2.826h1.883c0.782 0 1.416-0.634 1.416-1.416v0-2.038h2.173c0.782 0 1.416-0.634 1.416-1.417v-8.622c0-0.782-0.634-1.417-1.416-1.417z"></path>
<path d="M36.415 31.136l-8.378-22.408-8.378 22.408h-3.548l11.925-31.136 11.923 31.136z"></path>
</symbol>
</defs>
</svg>
